<mxfile host="app.diagrams.net" modified="2023-03-26T14:03:28.716Z" agent="Mozilla/5.0 (Macintosh; Intel Mac OS X 10_15_7) AppleWebKit/537.36 (KHTML, like Gecko) Chrome/111.0.0.0 Safari/537.36" etag="pykvAROk28qXwjYSdnCn" version="21.1.1" type="github">
  <diagram name="Page-1" id="RpGwSjnyMsfOofFmcJzw">
    <mxGraphModel dx="1194" dy="656" grid="1" gridSize="10" guides="1" tooltips="1" connect="1" arrows="1" fold="1" page="1" pageScale="1" pageWidth="850" pageHeight="1100" background="#FFFFFF" math="0" shadow="0">
      <root>
        <mxCell id="0" />
        <mxCell id="1" parent="0" />
        <mxCell id="12zeuCuNWRj9NvL4ZaCC-6" value="VPC" style="points=[[0,0],[0.25,0],[0.5,0],[0.75,0],[1,0],[1,0.25],[1,0.5],[1,0.75],[1,1],[0.75,1],[0.5,1],[0.25,1],[0,1],[0,0.75],[0,0.5],[0,0.25]];outlineConnect=0;gradientColor=none;html=1;whiteSpace=wrap;fontSize=12;fontStyle=0;container=1;pointerEvents=0;collapsible=0;recursiveResize=0;shape=mxgraph.aws4.group;grIcon=mxgraph.aws4.group_vpc;strokeColor=#248814;fillColor=none;verticalAlign=top;align=left;spacingLeft=30;fontColor=#AAB7B8;dashed=0;" parent="1" vertex="1">
          <mxGeometry x="110" y="100" width="670" height="450" as="geometry" />
        </mxCell>
        <mxCell id="12zeuCuNWRj9NvL4ZaCC-18" style="edgeStyle=orthogonalEdgeStyle;rounded=0;orthogonalLoop=1;jettySize=auto;html=1;exitX=0.5;exitY=1;exitDx=0;exitDy=0;exitPerimeter=0;" parent="12zeuCuNWRj9NvL4ZaCC-6" source="12zeuCuNWRj9NvL4ZaCC-16" target="12zeuCuNWRj9NvL4ZaCC-17" edge="1">
          <mxGeometry relative="1" as="geometry" />
        </mxCell>
        <mxCell id="12zeuCuNWRj9NvL4ZaCC-16" value="" style="outlineConnect=0;dashed=0;verticalLabelPosition=bottom;verticalAlign=top;align=center;html=1;shape=mxgraph.aws3.classic_load_balancer;fillColor=#F58536;gradientColor=none;" parent="12zeuCuNWRj9NvL4ZaCC-6" vertex="1">
          <mxGeometry x="281" y="30" width="69" height="72" as="geometry" />
        </mxCell>
        <mxCell id="12zeuCuNWRj9NvL4ZaCC-22" style="edgeStyle=orthogonalEdgeStyle;rounded=0;orthogonalLoop=1;jettySize=auto;html=1;entryX=0.5;entryY=0;entryDx=0;entryDy=0;entryPerimeter=0;" parent="12zeuCuNWRj9NvL4ZaCC-6" source="12zeuCuNWRj9NvL4ZaCC-17" target="12zeuCuNWRj9NvL4ZaCC-21" edge="1">
          <mxGeometry relative="1" as="geometry" />
        </mxCell>
        <mxCell id="12zeuCuNWRj9NvL4ZaCC-25" style="edgeStyle=orthogonalEdgeStyle;rounded=0;orthogonalLoop=1;jettySize=auto;html=1;entryX=0.5;entryY=0;entryDx=0;entryDy=0;" parent="12zeuCuNWRj9NvL4ZaCC-6" source="12zeuCuNWRj9NvL4ZaCC-17" target="12zeuCuNWRj9NvL4ZaCC-24" edge="1">
          <mxGeometry relative="1" as="geometry" />
        </mxCell>
        <mxCell id="12zeuCuNWRj9NvL4ZaCC-17" value="" style="sketch=0;outlineConnect=0;fontColor=#232F3E;gradientColor=none;fillColor=#D45B07;strokeColor=none;dashed=0;verticalLabelPosition=bottom;verticalAlign=top;align=center;html=1;fontSize=12;fontStyle=0;aspect=fixed;pointerEvents=1;shape=mxgraph.aws4.auto_scaling2;" parent="12zeuCuNWRj9NvL4ZaCC-6" vertex="1">
          <mxGeometry x="291.5" y="130" width="48" height="48" as="geometry" />
        </mxCell>
        <mxCell id="12zeuCuNWRj9NvL4ZaCC-29" style="edgeStyle=orthogonalEdgeStyle;rounded=0;orthogonalLoop=1;jettySize=auto;html=1;exitX=0.5;exitY=1;exitDx=0;exitDy=0;exitPerimeter=0;entryX=0.5;entryY=0;entryDx=0;entryDy=0;entryPerimeter=0;" parent="12zeuCuNWRj9NvL4ZaCC-6" source="12zeuCuNWRj9NvL4ZaCC-21" target="12zeuCuNWRj9NvL4ZaCC-28" edge="1">
          <mxGeometry relative="1" as="geometry" />
        </mxCell>
        <mxCell id="12zeuCuNWRj9NvL4ZaCC-21" value="" style="sketch=0;points=[[0,0,0],[0.25,0,0],[0.5,0,0],[0.75,0,0],[1,0,0],[0,1,0],[0.25,1,0],[0.5,1,0],[0.75,1,0],[1,1,0],[0,0.25,0],[0,0.5,0],[0,0.75,0],[1,0.25,0],[1,0.5,0],[1,0.75,0]];outlineConnect=0;fontColor=#232F3E;gradientColor=#F78E04;gradientDirection=north;fillColor=#D05C17;strokeColor=#ffffff;dashed=0;verticalLabelPosition=bottom;verticalAlign=top;align=center;html=1;fontSize=12;fontStyle=0;aspect=fixed;shape=mxgraph.aws4.resourceIcon;resIcon=mxgraph.aws4.ecs;" parent="12zeuCuNWRj9NvL4ZaCC-6" vertex="1">
          <mxGeometry x="380" y="178" width="78" height="78" as="geometry" />
        </mxCell>
        <mxCell id="12zeuCuNWRj9NvL4ZaCC-24" value="EC2 instance contents" style="points=[[0,0],[0.25,0],[0.5,0],[0.75,0],[1,0],[1,0.25],[1,0.5],[1,0.75],[1,1],[0.75,1],[0.5,1],[0.25,1],[0,1],[0,0.75],[0,0.5],[0,0.25]];outlineConnect=0;gradientColor=none;html=1;whiteSpace=wrap;fontSize=12;fontStyle=0;container=1;pointerEvents=0;collapsible=0;recursiveResize=0;shape=mxgraph.aws4.group;grIcon=mxgraph.aws4.group_ec2_instance_contents;strokeColor=#D86613;fillColor=none;verticalAlign=top;align=left;spacingLeft=30;fontColor=#D86613;dashed=0;" parent="12zeuCuNWRj9NvL4ZaCC-6" vertex="1">
          <mxGeometry x="90" y="178" width="130" height="130" as="geometry" />
        </mxCell>
        <mxCell id="12zeuCuNWRj9NvL4ZaCC-26" value="" style="dashed=0;outlineConnect=0;html=1;align=center;labelPosition=center;verticalLabelPosition=bottom;verticalAlign=top;shape=mxgraph.weblogos.mongodb" parent="12zeuCuNWRj9NvL4ZaCC-24" vertex="1">
          <mxGeometry x="40" y="42" width="30" height="68" as="geometry" />
        </mxCell>
        <mxCell id="12zeuCuNWRj9NvL4ZaCC-27" value="MongoDB" style="text;html=1;align=center;verticalAlign=middle;resizable=0;points=[];autosize=1;strokeColor=none;fillColor=none;" parent="12zeuCuNWRj9NvL4ZaCC-24" vertex="1">
          <mxGeometry x="15" y="100" width="80" height="30" as="geometry" />
        </mxCell>
        <mxCell id="12zeuCuNWRj9NvL4ZaCC-28" value="" style="sketch=0;points=[[0,0,0],[0.25,0,0],[0.5,0,0],[0.75,0,0],[1,0,0],[0,1,0],[0.25,1,0],[0.5,1,0],[0.75,1,0],[1,1,0],[0,0.25,0],[0,0.5,0],[0,0.75,0],[1,0.25,0],[1,0.5,0],[1,0.75,0]];outlineConnect=0;fontColor=#232F3E;gradientColor=#F78E04;gradientDirection=north;fillColor=#D05C17;strokeColor=#ffffff;dashed=0;verticalLabelPosition=bottom;verticalAlign=top;align=center;html=1;fontSize=12;fontStyle=0;aspect=fixed;shape=mxgraph.aws4.resourceIcon;resIcon=mxgraph.aws4.fargate;" parent="12zeuCuNWRj9NvL4ZaCC-6" vertex="1">
          <mxGeometry x="380" y="290" width="78" height="78" as="geometry" />
        </mxCell>
        <mxCell id="12zeuCuNWRj9NvL4ZaCC-31" value="ALB" style="text;html=1;align=center;verticalAlign=middle;resizable=0;points=[];autosize=1;strokeColor=none;fillColor=none;" parent="12zeuCuNWRj9NvL4ZaCC-6" vertex="1">
          <mxGeometry x="288" width="50" height="30" as="geometry" />
        </mxCell>
        <mxCell id="12zeuCuNWRj9NvL4ZaCC-34" value="Fargate" style="text;html=1;align=center;verticalAlign=middle;resizable=0;points=[];autosize=1;strokeColor=none;fillColor=none;" parent="12zeuCuNWRj9NvL4ZaCC-6" vertex="1">
          <mxGeometry x="420" y="260" width="60" height="30" as="geometry" />
        </mxCell>
        <mxCell id="12zeuCuNWRj9NvL4ZaCC-33" value="ECS" style="text;html=1;align=center;verticalAlign=middle;resizable=0;points=[];autosize=1;strokeColor=none;fillColor=none;" parent="1" vertex="1">
          <mxGeometry x="525" y="255" width="50" height="30" as="geometry" />
        </mxCell>
      </root>
    </mxGraphModel>
  </diagram>
</mxfile>
